<mxfile host="Electron" agent="Mozilla/5.0 (X11; Linux x86_64) AppleWebKit/537.36 (KHTML, like Gecko) draw.io/24.7.8 Chrome/128.0.6613.36 Electron/32.0.1 Safari/537.36" version="24.7.8">
  <diagram name="PÃ¡gina-1" id="WFT6-pquJy-1TiXKlxWs">
    <mxGraphModel dx="2955" dy="2940" grid="1" gridSize="10" guides="1" tooltips="1" connect="1" arrows="1" fold="1" page="1" pageScale="1" pageWidth="827" pageHeight="1169" math="0" shadow="0">
      <root>
        <mxCell id="0" />
        <mxCell id="1" parent="0" />
        <mxCell id="QPBchtsUJtEXCFkopXKg-1" value="usuario" style="swimlane;fontStyle=1;align=center;verticalAlign=top;childLayout=stackLayout;horizontal=1;startSize=26;horizontalStack=0;resizeParent=1;resizeParentMax=0;resizeLast=0;collapsible=1;marginBottom=0;whiteSpace=wrap;html=1;" parent="1" vertex="1">
          <mxGeometry x="-470" y="-1494" width="290" height="294" as="geometry" />
        </mxCell>
        <mxCell id="cfsOjez12NhXSAzzON_1-13" value="+ Rol rolUsuario" style="text;strokeColor=none;fillColor=none;align=left;verticalAlign=top;spacingLeft=4;spacingRight=4;overflow=hidden;rotatable=0;points=[[0,0.5],[1,0.5]];portConstraint=eastwest;whiteSpace=wrap;html=1;" parent="QPBchtsUJtEXCFkopXKg-1" vertex="1">
          <mxGeometry y="26" width="290" height="26" as="geometry" />
        </mxCell>
        <mxCell id="QPBchtsUJtEXCFkopXKg-12" value="+ String nombreUsuario (PK)" style="text;strokeColor=none;fillColor=none;align=left;verticalAlign=top;spacingLeft=4;spacingRight=4;overflow=hidden;rotatable=0;points=[[0,0.5],[1,0.5]];portConstraint=eastwest;whiteSpace=wrap;html=1;" parent="QPBchtsUJtEXCFkopXKg-1" vertex="1">
          <mxGeometry y="52" width="290" height="26" as="geometry" />
        </mxCell>
        <mxCell id="QPBchtsUJtEXCFkopXKg-5" value="+ String password" style="text;strokeColor=none;fillColor=none;align=left;verticalAlign=top;spacingLeft=4;spacingRight=4;overflow=hidden;rotatable=0;points=[[0,0.5],[1,0.5]];portConstraint=eastwest;whiteSpace=wrap;html=1;" parent="QPBchtsUJtEXCFkopXKg-1" vertex="1">
          <mxGeometry y="78" width="290" height="26" as="geometry" />
        </mxCell>
        <mxCell id="QPBchtsUJtEXCFkopXKg-6" value="+ String nombre" style="text;strokeColor=none;fillColor=none;align=left;verticalAlign=top;spacingLeft=4;spacingRight=4;overflow=hidden;rotatable=0;points=[[0,0.5],[1,0.5]];portConstraint=eastwest;whiteSpace=wrap;html=1;" parent="QPBchtsUJtEXCFkopXKg-1" vertex="1">
          <mxGeometry y="104" width="290" height="26" as="geometry" />
        </mxCell>
        <mxCell id="umDHWxReIGPnhOAI5taT-40" value="+ Perfil Perfil" style="text;strokeColor=none;fillColor=none;align=left;verticalAlign=top;spacingLeft=4;spacingRight=4;overflow=hidden;rotatable=0;points=[[0,0.5],[1,0.5]];portConstraint=eastwest;whiteSpace=wrap;html=1;" parent="QPBchtsUJtEXCFkopXKg-1" vertex="1">
          <mxGeometry y="130" width="290" height="26" as="geometry" />
        </mxCell>
        <mxCell id="QPBchtsUJtEXCFkopXKg-8" value="+ String descripcion&amp;nbsp; &amp;nbsp; &amp;nbsp;(opc.nulas)" style="text;strokeColor=none;fillColor=none;align=left;verticalAlign=top;spacingLeft=4;spacingRight=4;overflow=hidden;rotatable=0;points=[[0,0.5],[1,0.5]];portConstraint=eastwest;whiteSpace=wrap;html=1;" parent="QPBchtsUJtEXCFkopXKg-1" vertex="1">
          <mxGeometry y="156" width="290" height="26" as="geometry" />
        </mxCell>
        <mxCell id="QPBchtsUJtEXCFkopXKg-7" value="+ byte[] foto&amp;nbsp; (opc.nulas)" style="text;strokeColor=none;fillColor=none;align=left;verticalAlign=top;spacingLeft=4;spacingRight=4;overflow=hidden;rotatable=0;points=[[0,0.5],[1,0.5]];portConstraint=eastwest;whiteSpace=wrap;html=1;" parent="QPBchtsUJtEXCFkopXKg-1" vertex="1">
          <mxGeometry y="182" width="290" height="26" as="geometry" />
        </mxCell>
        <mxCell id="umDHWxReIGPnhOAI5taT-67" value="-----" style="text;strokeColor=none;fillColor=none;align=left;verticalAlign=top;spacingLeft=4;spacingRight=4;overflow=hidden;rotatable=0;points=[[0,0.5],[1,0.5]];portConstraint=eastwest;whiteSpace=wrap;html=1;" parent="QPBchtsUJtEXCFkopXKg-1" vertex="1">
          <mxGeometry y="208" width="290" height="26" as="geometry" />
        </mxCell>
        <mxCell id="umDHWxReIGPnhOAI5taT-68" value="+ List&amp;lt;PreferenciaUsuario&amp;gt; preferenciasUsuario" style="text;strokeColor=none;fillColor=none;align=left;verticalAlign=top;spacingLeft=4;spacingRight=4;overflow=hidden;rotatable=0;points=[[0,0.5],[1,0.5]];portConstraint=eastwest;whiteSpace=wrap;html=1;" parent="QPBchtsUJtEXCFkopXKg-1" vertex="1">
          <mxGeometry y="234" width="290" height="26" as="geometry" />
        </mxCell>
        <mxCell id="QPBchtsUJtEXCFkopXKg-3" value="" style="line;strokeWidth=1;fillColor=none;align=left;verticalAlign=middle;spacingTop=-1;spacingLeft=3;spacingRight=3;rotatable=0;labelPosition=right;points=[];portConstraint=eastwest;strokeColor=inherit;" parent="QPBchtsUJtEXCFkopXKg-1" vertex="1">
          <mxGeometry y="260" width="290" height="8" as="geometry" />
        </mxCell>
        <mxCell id="QPBchtsUJtEXCFkopXKg-4" value="+ actualizarUsuario();" style="text;strokeColor=none;fillColor=none;align=left;verticalAlign=top;spacingLeft=4;spacingRight=4;overflow=hidden;rotatable=0;points=[[0,0.5],[1,0.5]];portConstraint=eastwest;whiteSpace=wrap;html=1;" parent="QPBchtsUJtEXCFkopXKg-1" vertex="1">
          <mxGeometry y="268" width="290" height="26" as="geometry" />
        </mxCell>
        <mxCell id="QPBchtsUJtEXCFkopXKg-13" value="Administrador" style="swimlane;fontStyle=1;align=center;verticalAlign=top;childLayout=stackLayout;horizontal=1;startSize=26;horizontalStack=0;resizeParent=1;resizeParentMax=0;resizeLast=0;collapsible=1;marginBottom=0;whiteSpace=wrap;html=1;" parent="1" vertex="1">
          <mxGeometry x="-850" y="-1264" width="160" height="34" as="geometry" />
        </mxCell>
        <mxCell id="QPBchtsUJtEXCFkopXKg-15" value="" style="line;strokeWidth=1;fillColor=none;align=left;verticalAlign=middle;spacingTop=-1;spacingLeft=3;spacingRight=3;rotatable=0;labelPosition=right;points=[];portConstraint=eastwest;strokeColor=inherit;" parent="QPBchtsUJtEXCFkopXKg-13" vertex="1">
          <mxGeometry y="26" width="160" height="8" as="geometry" />
        </mxCell>
        <mxCell id="QPBchtsUJtEXCFkopXKg-17" value="Suscriptor" style="swimlane;fontStyle=1;align=center;verticalAlign=top;childLayout=stackLayout;horizontal=1;startSize=26;horizontalStack=0;resizeParent=1;resizeParentMax=0;resizeLast=0;collapsible=1;marginBottom=0;whiteSpace=wrap;html=1;" parent="1" vertex="1">
          <mxGeometry x="-850" y="-1336" width="160" height="34" as="geometry" />
        </mxCell>
        <mxCell id="QPBchtsUJtEXCFkopXKg-19" value="" style="line;strokeWidth=1;fillColor=none;align=left;verticalAlign=middle;spacingTop=-1;spacingLeft=3;spacingRight=3;rotatable=0;labelPosition=right;points=[];portConstraint=eastwest;strokeColor=inherit;" parent="QPBchtsUJtEXCFkopXKg-17" vertex="1">
          <mxGeometry y="26" width="160" height="8" as="geometry" />
        </mxCell>
        <mxCell id="QPBchtsUJtEXCFkopXKg-21" value="Editor" style="swimlane;fontStyle=1;align=center;verticalAlign=top;childLayout=stackLayout;horizontal=1;startSize=26;horizontalStack=0;resizeParent=1;resizeParentMax=0;resizeLast=0;collapsible=1;marginBottom=0;whiteSpace=wrap;html=1;" parent="1" vertex="1">
          <mxGeometry x="-850" y="-1394" width="160" height="34" as="geometry" />
        </mxCell>
        <mxCell id="QPBchtsUJtEXCFkopXKg-23" value="" style="line;strokeWidth=1;fillColor=none;align=left;verticalAlign=middle;spacingTop=-1;spacingLeft=3;spacingRight=3;rotatable=0;labelPosition=right;points=[];portConstraint=eastwest;strokeColor=inherit;" parent="QPBchtsUJtEXCFkopXKg-21" vertex="1">
          <mxGeometry y="26" width="160" height="8" as="geometry" />
        </mxCell>
        <mxCell id="QPBchtsUJtEXCFkopXKg-25" value="Comprador" style="swimlane;fontStyle=1;align=center;verticalAlign=top;childLayout=stackLayout;horizontal=1;startSize=26;horizontalStack=0;resizeParent=1;resizeParentMax=0;resizeLast=0;collapsible=1;marginBottom=0;whiteSpace=wrap;html=1;" parent="1" vertex="1">
          <mxGeometry x="-850" y="-1464" width="160" height="34" as="geometry" />
        </mxCell>
        <mxCell id="QPBchtsUJtEXCFkopXKg-27" value="" style="line;strokeWidth=1;fillColor=none;align=left;verticalAlign=middle;spacingTop=-1;spacingLeft=3;spacingRight=3;rotatable=0;labelPosition=right;points=[];portConstraint=eastwest;strokeColor=inherit;" parent="QPBchtsUJtEXCFkopXKg-25" vertex="1">
          <mxGeometry y="26" width="160" height="8" as="geometry" />
        </mxCell>
        <mxCell id="0hr7ckpAqA9oikr3UxDf-13" value="RepositorioLecturaEscritura &amp;lt;T , ID &amp;gt; ( Interface )" style="swimlane;fontStyle=1;align=center;verticalAlign=top;childLayout=stackLayout;horizontal=1;startSize=26;horizontalStack=0;resizeParent=1;resizeParentMax=0;resizeLast=0;collapsible=1;marginBottom=0;whiteSpace=wrap;html=1;" parent="1" vertex="1">
          <mxGeometry x="1160" y="-838" width="340" height="112" as="geometry" />
        </mxCell>
        <mxCell id="0hr7ckpAqA9oikr3UxDf-15" value="" style="line;strokeWidth=1;fillColor=none;align=left;verticalAlign=middle;spacingTop=-1;spacingLeft=3;spacingRight=3;rotatable=0;labelPosition=right;points=[];portConstraint=eastwest;strokeColor=inherit;" parent="0hr7ckpAqA9oikr3UxDf-13" vertex="1">
          <mxGeometry y="26" width="340" height="8" as="geometry" />
        </mxCell>
        <mxCell id="umDHWxReIGPnhOAI5taT-9" value="+ guardar( T t )" style="text;strokeColor=none;fillColor=none;align=left;verticalAlign=top;spacingLeft=4;spacingRight=4;overflow=hidden;rotatable=0;points=[[0,0.5],[1,0.5]];portConstraint=eastwest;whiteSpace=wrap;html=1;" parent="0hr7ckpAqA9oikr3UxDf-13" vertex="1">
          <mxGeometry y="34" width="340" height="26" as="geometry" />
        </mxCell>
        <mxCell id="umDHWxReIGPnhOAI5taT-11" value="+ actualizar(T t)&amp;nbsp;&amp;nbsp;" style="text;strokeColor=none;fillColor=none;align=left;verticalAlign=top;spacingLeft=4;spacingRight=4;overflow=hidden;rotatable=0;points=[[0,0.5],[1,0.5]];portConstraint=eastwest;whiteSpace=wrap;html=1;" parent="0hr7ckpAqA9oikr3UxDf-13" vertex="1">
          <mxGeometry y="60" width="340" height="26" as="geometry" />
        </mxCell>
        <mxCell id="umDHWxReIGPnhOAI5taT-10" value="+ obtenerPorID(ID identificador)&amp;nbsp;&lt;span style=&quot;white-space: pre;&quot;&gt;&#x9;&lt;/span&gt;T" style="text;strokeColor=none;fillColor=none;align=left;verticalAlign=top;spacingLeft=4;spacingRight=4;overflow=hidden;rotatable=0;points=[[0,0.5],[1,0.5]];portConstraint=eastwest;whiteSpace=wrap;html=1;" parent="0hr7ckpAqA9oikr3UxDf-13" vertex="1">
          <mxGeometry y="86" width="340" height="26" as="geometry" />
        </mxCell>
        <mxCell id="0hr7ckpAqA9oikr3UxDf-21" value="RepositorioUsuario" style="swimlane;fontStyle=1;align=center;verticalAlign=top;childLayout=stackLayout;horizontal=1;startSize=26;horizontalStack=0;resizeParent=1;resizeParentMax=0;resizeLast=0;collapsible=1;marginBottom=0;whiteSpace=wrap;html=1;" parent="1" vertex="1">
          <mxGeometry x="660" y="-812" width="235" height="34" as="geometry" />
        </mxCell>
        <mxCell id="0hr7ckpAqA9oikr3UxDf-23" value="" style="line;strokeWidth=1;fillColor=none;align=left;verticalAlign=middle;spacingTop=-1;spacingLeft=3;spacingRight=3;rotatable=0;labelPosition=right;points=[];portConstraint=eastwest;strokeColor=inherit;" parent="0hr7ckpAqA9oikr3UxDf-21" vertex="1">
          <mxGeometry y="26" width="235" height="8" as="geometry" />
        </mxCell>
        <mxCell id="umDHWxReIGPnhOAI5taT-60" value="PreferenciaUsuario" style="swimlane;fontStyle=1;align=center;verticalAlign=top;childLayout=stackLayout;horizontal=1;startSize=26;horizontalStack=0;resizeParent=1;resizeParentMax=0;resizeLast=0;collapsible=1;marginBottom=0;whiteSpace=wrap;html=1;" parent="1" vertex="1">
          <mxGeometry x="-420" y="-1624" width="160" height="112" as="geometry" />
        </mxCell>
        <mxCell id="umDHWxReIGPnhOAI5taT-65" value="+ String preferencia" style="text;strokeColor=none;fillColor=none;align=left;verticalAlign=top;spacingLeft=4;spacingRight=4;overflow=hidden;rotatable=0;points=[[0,0.5],[1,0.5]];portConstraint=eastwest;whiteSpace=wrap;html=1;" parent="umDHWxReIGPnhOAI5taT-60" vertex="1">
          <mxGeometry y="26" width="160" height="26" as="geometry" />
        </mxCell>
        <mxCell id="umDHWxReIGPnhOAI5taT-94" value="+ String nombreUsuario" style="text;strokeColor=none;fillColor=none;align=left;verticalAlign=top;spacingLeft=4;spacingRight=4;overflow=hidden;rotatable=0;points=[[0,0.5],[1,0.5]];portConstraint=eastwest;whiteSpace=wrap;html=1;" parent="umDHWxReIGPnhOAI5taT-60" vertex="1">
          <mxGeometry y="52" width="160" height="26" as="geometry" />
        </mxCell>
        <mxCell id="umDHWxReIGPnhOAI5taT-64" value="+ String tipoPreferencia" style="text;strokeColor=none;fillColor=none;align=left;verticalAlign=top;spacingLeft=4;spacingRight=4;overflow=hidden;rotatable=0;points=[[0,0.5],[1,0.5]];portConstraint=eastwest;whiteSpace=wrap;html=1;" parent="umDHWxReIGPnhOAI5taT-60" vertex="1">
          <mxGeometry y="78" width="160" height="26" as="geometry" />
        </mxCell>
        <mxCell id="umDHWxReIGPnhOAI5taT-62" value="" style="line;strokeWidth=1;fillColor=none;align=left;verticalAlign=middle;spacingTop=-1;spacingLeft=3;spacingRight=3;rotatable=0;labelPosition=right;points=[];portConstraint=eastwest;strokeColor=inherit;" parent="umDHWxReIGPnhOAI5taT-60" vertex="1">
          <mxGeometry y="104" width="160" height="8" as="geometry" />
        </mxCell>
        <mxCell id="umDHWxReIGPnhOAI5taT-66" value="ENUM- * TEMA_INTERES, GUSTO , HOBBIE" style="text;html=1;align=center;verticalAlign=middle;resizable=0;points=[];autosize=1;strokeColor=none;fillColor=none;" parent="1" vertex="1">
          <mxGeometry x="-485" y="-1662" width="270" height="30" as="geometry" />
        </mxCell>
        <mxCell id="umDHWxReIGPnhOAI5taT-80" style="edgeStyle=orthogonalEdgeStyle;rounded=0;orthogonalLoop=1;jettySize=auto;html=1;exitX=0.5;exitY=0;exitDx=0;exitDy=0;entryX=0.667;entryY=0.833;entryDx=0;entryDy=0;entryPerimeter=0;" parent="1" source="QPBchtsUJtEXCFkopXKg-1" target="umDHWxReIGPnhOAI5taT-62" edge="1">
          <mxGeometry relative="1" as="geometry" />
        </mxCell>
        <mxCell id="v9M5jdULhOaIKDF-wlbc-1" value="ServletRegistro" style="swimlane;fontStyle=1;align=center;verticalAlign=top;childLayout=stackLayout;horizontal=1;startSize=26;horizontalStack=0;resizeParent=1;resizeParentMax=0;resizeLast=0;collapsible=1;marginBottom=0;whiteSpace=wrap;html=1;" parent="1" vertex="1">
          <mxGeometry x="-390" y="-784" width="160" height="112" as="geometry" />
        </mxCell>
        <mxCell id="v9M5jdULhOaIKDF-wlbc-2" value="+&amp;nbsp;" style="text;strokeColor=none;fillColor=none;align=left;verticalAlign=top;spacingLeft=4;spacingRight=4;overflow=hidden;rotatable=0;points=[[0,0.5],[1,0.5]];portConstraint=eastwest;whiteSpace=wrap;html=1;" parent="v9M5jdULhOaIKDF-wlbc-1" vertex="1">
          <mxGeometry y="26" width="160" height="26" as="geometry" />
        </mxCell>
        <mxCell id="v9M5jdULhOaIKDF-wlbc-106" value="+ String exitoEnRegistro" style="text;strokeColor=none;fillColor=none;align=left;verticalAlign=top;spacingLeft=4;spacingRight=4;overflow=hidden;rotatable=0;points=[[0,0.5],[1,0.5]];portConstraint=eastwest;whiteSpace=wrap;html=1;" parent="v9M5jdULhOaIKDF-wlbc-1" vertex="1">
          <mxGeometry y="52" width="160" height="26" as="geometry" />
        </mxCell>
        <mxCell id="v9M5jdULhOaIKDF-wlbc-3" value="" style="line;strokeWidth=1;fillColor=none;align=left;verticalAlign=middle;spacingTop=-1;spacingLeft=3;spacingRight=3;rotatable=0;labelPosition=right;points=[];portConstraint=eastwest;strokeColor=inherit;" parent="v9M5jdULhOaIKDF-wlbc-1" vertex="1">
          <mxGeometry y="78" width="160" height="8" as="geometry" />
        </mxCell>
        <mxCell id="v9M5jdULhOaIKDF-wlbc-4" value="+ validarRegistro();" style="text;strokeColor=none;fillColor=none;align=left;verticalAlign=top;spacingLeft=4;spacingRight=4;overflow=hidden;rotatable=0;points=[[0,0.5],[1,0.5]];portConstraint=eastwest;whiteSpace=wrap;html=1;" parent="v9M5jdULhOaIKDF-wlbc-1" vertex="1">
          <mxGeometry y="86" width="160" height="26" as="geometry" />
        </mxCell>
        <mxCell id="v9M5jdULhOaIKDF-wlbc-24" value="RepositorioPreferencia" style="swimlane;fontStyle=1;align=center;verticalAlign=top;childLayout=stackLayout;horizontal=1;startSize=26;horizontalStack=0;resizeParent=1;resizeParentMax=0;resizeLast=0;collapsible=1;marginBottom=0;whiteSpace=wrap;html=1;" parent="1" vertex="1">
          <mxGeometry x="653" y="-522" width="249" height="34" as="geometry" />
        </mxCell>
        <mxCell id="v9M5jdULhOaIKDF-wlbc-25" value="" style="line;strokeWidth=1;fillColor=none;align=left;verticalAlign=middle;spacingTop=-1;spacingLeft=3;spacingRight=3;rotatable=0;labelPosition=right;points=[];portConstraint=eastwest;strokeColor=inherit;" parent="v9M5jdULhOaIKDF-wlbc-24" vertex="1">
          <mxGeometry y="26" width="249" height="8" as="geometry" />
        </mxCell>
        <mxCell id="v9M5jdULhOaIKDF-wlbc-35" style="edgeStyle=orthogonalEdgeStyle;rounded=0;orthogonalLoop=1;jettySize=auto;html=1;exitX=0;exitY=0;exitDx=0;exitDy=0;entryX=1;entryY=0.5;entryDx=0;entryDy=0;" parent="1" source="v9M5jdULhOaIKDF-wlbc-29" target="QPBchtsUJtEXCFkopXKg-25" edge="1">
          <mxGeometry relative="1" as="geometry" />
        </mxCell>
        <mxCell id="v9M5jdULhOaIKDF-wlbc-36" style="edgeStyle=orthogonalEdgeStyle;rounded=0;orthogonalLoop=1;jettySize=auto;html=1;exitX=0;exitY=0.5;exitDx=0;exitDy=0;" parent="1" source="v9M5jdULhOaIKDF-wlbc-29" target="QPBchtsUJtEXCFkopXKg-21" edge="1">
          <mxGeometry relative="1" as="geometry" />
        </mxCell>
        <mxCell id="v9M5jdULhOaIKDF-wlbc-37" style="edgeStyle=orthogonalEdgeStyle;rounded=0;orthogonalLoop=1;jettySize=auto;html=1;exitX=0;exitY=1;exitDx=0;exitDy=0;entryX=1;entryY=0.5;entryDx=0;entryDy=0;" parent="1" source="v9M5jdULhOaIKDF-wlbc-29" target="QPBchtsUJtEXCFkopXKg-17" edge="1">
          <mxGeometry relative="1" as="geometry">
            <Array as="points">
              <mxPoint x="-670" y="-1348" />
              <mxPoint x="-660" y="-1348" />
              <mxPoint x="-660" y="-1319" />
            </Array>
          </mxGeometry>
        </mxCell>
        <mxCell id="v9M5jdULhOaIKDF-wlbc-38" style="edgeStyle=orthogonalEdgeStyle;rounded=0;orthogonalLoop=1;jettySize=auto;html=1;entryX=1;entryY=0.5;entryDx=0;entryDy=0;" parent="1" source="v9M5jdULhOaIKDF-wlbc-29" target="QPBchtsUJtEXCFkopXKg-13" edge="1">
          <mxGeometry relative="1" as="geometry">
            <Array as="points">
              <mxPoint x="-640" y="-1292" />
              <mxPoint x="-670" y="-1292" />
              <mxPoint x="-670" y="-1247" />
            </Array>
          </mxGeometry>
        </mxCell>
        <mxCell id="v9M5jdULhOaIKDF-wlbc-29" value="ROl" style="swimlane;fontStyle=1;align=center;verticalAlign=top;childLayout=stackLayout;horizontal=1;startSize=26;horizontalStack=0;resizeParent=1;resizeParentMax=0;resizeLast=0;collapsible=1;marginBottom=0;whiteSpace=wrap;html=1;" parent="1" vertex="1">
          <mxGeometry x="-670" y="-1402" width="160" height="34" as="geometry" />
        </mxCell>
        <mxCell id="v9M5jdULhOaIKDF-wlbc-31" value="" style="line;strokeWidth=1;fillColor=none;align=left;verticalAlign=middle;spacingTop=-1;spacingLeft=3;spacingRight=3;rotatable=0;labelPosition=right;points=[];portConstraint=eastwest;strokeColor=inherit;" parent="v9M5jdULhOaIKDF-wlbc-29" vertex="1">
          <mxGeometry y="26" width="160" height="8" as="geometry" />
        </mxCell>
        <mxCell id="v9M5jdULhOaIKDF-wlbc-34" value="Use" style="endArrow=open;endSize=12;dashed=1;html=1;rounded=0;exitX=0.018;exitY=0.949;exitDx=0;exitDy=0;exitPerimeter=0;entryX=1;entryY=0.5;entryDx=0;entryDy=0;" parent="1" source="QPBchtsUJtEXCFkopXKg-5" target="v9M5jdULhOaIKDF-wlbc-29" edge="1">
          <mxGeometry width="160" relative="1" as="geometry">
            <mxPoint x="-750" y="-1402" as="sourcePoint" />
            <mxPoint x="-590" y="-1402" as="targetPoint" />
          </mxGeometry>
        </mxCell>
        <mxCell id="v9M5jdULhOaIKDF-wlbc-39" value="CarteraDigitial" style="swimlane;fontStyle=1;align=center;verticalAlign=top;childLayout=stackLayout;horizontal=1;startSize=26;horizontalStack=0;resizeParent=1;resizeParentMax=0;resizeLast=0;collapsible=1;marginBottom=0;whiteSpace=wrap;html=1;" parent="1" vertex="1">
          <mxGeometry x="-640" y="-1152" width="380" height="164" as="geometry" />
        </mxCell>
        <mxCell id="v9M5jdULhOaIKDF-wlbc-40" value="+ Double cantidadDisponible" style="text;strokeColor=none;fillColor=none;align=left;verticalAlign=top;spacingLeft=4;spacingRight=4;overflow=hidden;rotatable=0;points=[[0,0.5],[1,0.5]];portConstraint=eastwest;whiteSpace=wrap;html=1;" parent="v9M5jdULhOaIKDF-wlbc-39" vertex="1">
          <mxGeometry y="26" width="380" height="26" as="geometry" />
        </mxCell>
        <mxCell id="v9M5jdULhOaIKDF-wlbc-68" value="+ Long IdUsuario" style="text;strokeColor=none;fillColor=none;align=left;verticalAlign=top;spacingLeft=4;spacingRight=4;overflow=hidden;rotatable=0;points=[[0,0.5],[1,0.5]];portConstraint=eastwest;whiteSpace=wrap;html=1;" parent="v9M5jdULhOaIKDF-wlbc-39" vertex="1">
          <mxGeometry y="52" width="380" height="26" as="geometry" />
        </mxCell>
        <mxCell id="v9M5jdULhOaIKDF-wlbc-41" value="" style="line;strokeWidth=1;fillColor=none;align=left;verticalAlign=middle;spacingTop=-1;spacingLeft=3;spacingRight=3;rotatable=0;labelPosition=right;points=[];portConstraint=eastwest;strokeColor=inherit;" parent="v9M5jdULhOaIKDF-wlbc-39" vertex="1">
          <mxGeometry y="78" width="380" height="8" as="geometry" />
        </mxCell>
        <mxCell id="v9M5jdULhOaIKDF-wlbc-42" value="+ recargarCartera(Double cantidad)" style="text;strokeColor=none;fillColor=none;align=left;verticalAlign=top;spacingLeft=4;spacingRight=4;overflow=hidden;rotatable=0;points=[[0,0.5],[1,0.5]];portConstraint=eastwest;whiteSpace=wrap;html=1;" parent="v9M5jdULhOaIKDF-wlbc-39" vertex="1">
          <mxGeometry y="86" width="380" height="26" as="geometry" />
        </mxCell>
        <mxCell id="v9M5jdULhOaIKDF-wlbc-49" value="+ debitarCartera(Double cantidad)" style="text;strokeColor=none;fillColor=none;align=left;verticalAlign=top;spacingLeft=4;spacingRight=4;overflow=hidden;rotatable=0;points=[[0,0.5],[1,0.5]];portConstraint=eastwest;whiteSpace=wrap;html=1;" parent="v9M5jdULhOaIKDF-wlbc-39" vertex="1">
          <mxGeometry y="112" width="380" height="26" as="geometry" />
        </mxCell>
        <mxCell id="v9M5jdULhOaIKDF-wlbc-50" value="+ debitoValidoa(cantidadDisponible, cantidadDebito) boolean" style="text;strokeColor=none;fillColor=none;align=left;verticalAlign=top;spacingLeft=4;spacingRight=4;overflow=hidden;rotatable=0;points=[[0,0.5],[1,0.5]];portConstraint=eastwest;whiteSpace=wrap;html=1;" parent="v9M5jdULhOaIKDF-wlbc-39" vertex="1">
          <mxGeometry y="138" width="380" height="26" as="geometry" />
        </mxCell>
        <mxCell id="v9M5jdULhOaIKDF-wlbc-43" value="Use" style="endArrow=open;endSize=12;dashed=1;html=1;rounded=0;entryX=0;entryY=0;entryDx=0;entryDy=0;" parent="1" target="v9M5jdULhOaIKDF-wlbc-39" edge="1">
          <mxGeometry width="160" relative="1" as="geometry">
            <mxPoint x="-710" y="-1222" as="sourcePoint" />
            <mxPoint x="-370" y="-992" as="targetPoint" />
          </mxGeometry>
        </mxCell>
        <mxCell id="v9M5jdULhOaIKDF-wlbc-45" value="Use" style="endArrow=open;endSize=12;dashed=1;html=1;rounded=0;exitX=0;exitY=1;exitDx=0;exitDy=0;entryX=0;entryY=0.5;entryDx=0;entryDy=0;" parent="1" source="QPBchtsUJtEXCFkopXKg-25" target="v9M5jdULhOaIKDF-wlbc-42" edge="1">
          <mxGeometry width="160" relative="1" as="geometry">
            <mxPoint x="-530" y="-1112" as="sourcePoint" />
            <mxPoint x="-370" y="-1112" as="targetPoint" />
            <Array as="points">
              <mxPoint x="-940" y="-1432" />
              <mxPoint x="-940" y="-1052" />
            </Array>
          </mxGeometry>
        </mxCell>
        <mxCell id="v9M5jdULhOaIKDF-wlbc-47" value="Use" style="endArrow=open;endSize=12;dashed=1;html=1;rounded=0;exitX=0;exitY=1;exitDx=0;exitDy=0;entryX=0;entryY=0.5;entryDx=0;entryDy=0;" parent="1" source="QPBchtsUJtEXCFkopXKg-17" target="v9M5jdULhOaIKDF-wlbc-40" edge="1">
          <mxGeometry width="160" relative="1" as="geometry">
            <mxPoint x="-530" y="-1252" as="sourcePoint" />
            <mxPoint x="-370" y="-1252" as="targetPoint" />
            <Array as="points">
              <mxPoint x="-910" y="-1302" />
              <mxPoint x="-910" y="-1113" />
            </Array>
          </mxGeometry>
        </mxCell>
        <mxCell id="v9M5jdULhOaIKDF-wlbc-69" value="RepositorioCartera" style="swimlane;fontStyle=1;align=center;verticalAlign=top;childLayout=stackLayout;horizontal=1;startSize=26;horizontalStack=0;resizeParent=1;resizeParentMax=0;resizeLast=0;collapsible=1;marginBottom=0;whiteSpace=wrap;html=1;" parent="1" vertex="1">
          <mxGeometry x="652" y="-672" width="247" height="34" as="geometry" />
        </mxCell>
        <mxCell id="v9M5jdULhOaIKDF-wlbc-71" value="" style="line;strokeWidth=1;fillColor=none;align=left;verticalAlign=middle;spacingTop=-1;spacingLeft=3;spacingRight=3;rotatable=0;labelPosition=right;points=[];portConstraint=eastwest;strokeColor=inherit;" parent="v9M5jdULhOaIKDF-wlbc-69" vertex="1">
          <mxGeometry y="26" width="247" height="8" as="geometry" />
        </mxCell>
        <mxCell id="v9M5jdULhOaIKDF-wlbc-78" value="RepositorioCRUD &amp;lt;T, ID&amp;gt; ( Interface )" style="swimlane;fontStyle=1;align=center;verticalAlign=top;childLayout=stackLayout;horizontal=1;startSize=26;horizontalStack=0;resizeParent=1;resizeParentMax=0;resizeLast=0;collapsible=1;marginBottom=0;whiteSpace=wrap;html=1;" parent="1" vertex="1">
          <mxGeometry x="1160" y="-621" width="260" height="164" as="geometry" />
        </mxCell>
        <mxCell id="v9M5jdULhOaIKDF-wlbc-79" value="" style="line;strokeWidth=1;fillColor=none;align=left;verticalAlign=middle;spacingTop=-1;spacingLeft=3;spacingRight=3;rotatable=0;labelPosition=right;points=[];portConstraint=eastwest;strokeColor=inherit;" parent="v9M5jdULhOaIKDF-wlbc-78" vertex="1">
          <mxGeometry y="26" width="260" height="8" as="geometry" />
        </mxCell>
        <mxCell id="v9M5jdULhOaIKDF-wlbc-80" value="+ Listar()&lt;span style=&quot;white-space: pre;&quot;&gt;&#x9;&lt;/span&gt;List&amp;lt;T&amp;gt;" style="text;strokeColor=none;fillColor=none;align=left;verticalAlign=top;spacingLeft=4;spacingRight=4;overflow=hidden;rotatable=0;points=[[0,0.5],[1,0.5]];portConstraint=eastwest;whiteSpace=wrap;html=1;" parent="v9M5jdULhOaIKDF-wlbc-78" vertex="1">
          <mxGeometry y="34" width="260" height="26" as="geometry" />
        </mxCell>
        <mxCell id="v9M5jdULhOaIKDF-wlbc-81" value="+ guardar( T t )" style="text;strokeColor=none;fillColor=none;align=left;verticalAlign=top;spacingLeft=4;spacingRight=4;overflow=hidden;rotatable=0;points=[[0,0.5],[1,0.5]];portConstraint=eastwest;whiteSpace=wrap;html=1;" parent="v9M5jdULhOaIKDF-wlbc-78" vertex="1">
          <mxGeometry y="60" width="260" height="26" as="geometry" />
        </mxCell>
        <mxCell id="v9M5jdULhOaIKDF-wlbc-82" value="+ actualizar(T t)&amp;nbsp;&amp;nbsp;" style="text;strokeColor=none;fillColor=none;align=left;verticalAlign=top;spacingLeft=4;spacingRight=4;overflow=hidden;rotatable=0;points=[[0,0.5],[1,0.5]];portConstraint=eastwest;whiteSpace=wrap;html=1;" parent="v9M5jdULhOaIKDF-wlbc-78" vertex="1">
          <mxGeometry y="86" width="260" height="26" as="geometry" />
        </mxCell>
        <mxCell id="v9M5jdULhOaIKDF-wlbc-83" value="+ obtenerPorID(ID identificador)&amp;nbsp;&lt;span style=&quot;white-space: pre;&quot;&gt;&#x9;&lt;/span&gt;T" style="text;strokeColor=none;fillColor=none;align=left;verticalAlign=top;spacingLeft=4;spacingRight=4;overflow=hidden;rotatable=0;points=[[0,0.5],[1,0.5]];portConstraint=eastwest;whiteSpace=wrap;html=1;" parent="v9M5jdULhOaIKDF-wlbc-78" vertex="1">
          <mxGeometry y="112" width="260" height="26" as="geometry" />
        </mxCell>
        <mxCell id="v9M5jdULhOaIKDF-wlbc-87" value="+ eliminarPorId(ID identificador) T" style="text;strokeColor=none;fillColor=none;align=left;verticalAlign=top;spacingLeft=4;spacingRight=4;overflow=hidden;rotatable=0;points=[[0,0.5],[1,0.5]];portConstraint=eastwest;whiteSpace=wrap;html=1;" parent="v9M5jdULhOaIKDF-wlbc-78" vertex="1">
          <mxGeometry y="138" width="260" height="26" as="geometry" />
        </mxCell>
        <mxCell id="v9M5jdULhOaIKDF-wlbc-86" value="Modelos que necesitan Listar:&lt;div&gt;editor&lt;/div&gt;&lt;div&gt;*revistas&lt;/div&gt;&lt;div&gt;* preferencias&lt;/div&gt;&lt;div&gt;* comentarios&lt;/div&gt;&lt;div&gt;* suscripcion&lt;/div&gt;&lt;div&gt;&lt;br&gt;&lt;/div&gt;&lt;div&gt;suscriptor&lt;/div&gt;&lt;div&gt;* suscripciones&lt;/div&gt;&lt;div&gt;*&amp;nbsp; preferencias&lt;/div&gt;&lt;div&gt;* catergorias&lt;/div&gt;&lt;div&gt;* revistas&lt;/div&gt;&lt;div&gt;&lt;br&gt;&lt;/div&gt;&lt;div&gt;comprador&lt;/div&gt;&lt;div&gt;*anuncios&lt;/div&gt;&lt;div&gt;*preferencias&amp;nbsp;&lt;/div&gt;&lt;div&gt;* reporte visualizaciones opcional&amp;nbsp;&lt;/div&gt;&lt;div&gt;&lt;br&gt;&lt;/div&gt;&lt;div&gt;administrador&lt;/div&gt;&lt;div&gt;* anuncios&amp;nbsp;&lt;/div&gt;&lt;div&gt;*&lt;/div&gt;" style="text;html=1;align=center;verticalAlign=middle;resizable=0;points=[];autosize=1;strokeColor=none;fillColor=none;" parent="1" vertex="1">
          <mxGeometry x="-1200" y="-2226" width="200" height="320" as="geometry" />
        </mxCell>
        <mxCell id="v9M5jdULhOaIKDF-wlbc-88" value="Use" style="endArrow=open;endSize=12;dashed=1;html=1;rounded=0;exitX=1;exitY=0.25;exitDx=0;exitDy=0;entryX=0;entryY=0;entryDx=0;entryDy=0;" parent="1" source="0hr7ckpAqA9oikr3UxDf-21" target="0hr7ckpAqA9oikr3UxDf-13" edge="1">
          <mxGeometry width="160" relative="1" as="geometry">
            <mxPoint x="1630" y="-766" as="sourcePoint" />
            <mxPoint x="1130" y="-802" as="targetPoint" />
          </mxGeometry>
        </mxCell>
        <mxCell id="v9M5jdULhOaIKDF-wlbc-95" value="ServicioRegistro" style="swimlane;fontStyle=1;align=center;verticalAlign=top;childLayout=stackLayout;horizontal=1;startSize=26;horizontalStack=0;resizeParent=1;resizeParentMax=0;resizeLast=0;collapsible=1;marginBottom=0;whiteSpace=wrap;html=1;" parent="1" vertex="1">
          <mxGeometry x="-80" y="-812" width="620" height="268" as="geometry" />
        </mxCell>
        <mxCell id="FwK0ukZyEXFp0lMy9nqA-37" value="+ Connection connection" style="text;strokeColor=none;fillColor=none;align=left;verticalAlign=top;spacingLeft=4;spacingRight=4;overflow=hidden;rotatable=0;points=[[0,0.5],[1,0.5]];portConstraint=eastwest;whiteSpace=wrap;html=1;" parent="v9M5jdULhOaIKDF-wlbc-95" vertex="1">
          <mxGeometry y="26" width="620" height="26" as="geometry" />
        </mxCell>
        <mxCell id="FwK0ukZyEXFp0lMy9nqA-32" value="+ RepositorioPreferenciaUsuario&amp;lt;PreferenciaUsuario&amp;gt;" style="text;strokeColor=none;fillColor=none;align=left;verticalAlign=top;spacingLeft=4;spacingRight=4;overflow=hidden;rotatable=0;points=[[0,0.5],[1,0.5]];portConstraint=eastwest;whiteSpace=wrap;html=1;" parent="v9M5jdULhOaIKDF-wlbc-95" vertex="1">
          <mxGeometry y="52" width="620" height="26" as="geometry" />
        </mxCell>
        <mxCell id="FwK0ukZyEXFp0lMy9nqA-35" value="+ RepositorioUsuario&amp;lt;PreferenciaUsuario&amp;gt;" style="text;strokeColor=none;fillColor=none;align=left;verticalAlign=top;spacingLeft=4;spacingRight=4;overflow=hidden;rotatable=0;points=[[0,0.5],[1,0.5]];portConstraint=eastwest;whiteSpace=wrap;html=1;" parent="v9M5jdULhOaIKDF-wlbc-95" vertex="1">
          <mxGeometry y="78" width="620" height="26" as="geometry" />
        </mxCell>
        <mxCell id="FwK0ukZyEXFp0lMy9nqA-36" value="+ RepositorioCarteraDigital&amp;lt;PreferenciaUsuario&amp;gt;" style="text;strokeColor=none;fillColor=none;align=left;verticalAlign=top;spacingLeft=4;spacingRight=4;overflow=hidden;rotatable=0;points=[[0,0.5],[1,0.5]];portConstraint=eastwest;whiteSpace=wrap;html=1;" parent="v9M5jdULhOaIKDF-wlbc-95" vertex="1">
          <mxGeometry y="104" width="620" height="26" as="geometry" />
        </mxCell>
        <mxCell id="ombsT0ijn7gkA4fLA30z-9" value="+ CreadorUsuarios creadorUsuarios Usuario&amp;nbsp;" style="text;strokeColor=none;fillColor=none;align=left;verticalAlign=top;spacingLeft=4;spacingRight=4;overflow=hidden;rotatable=0;points=[[0,0.5],[1,0.5]];portConstraint=eastwest;whiteSpace=wrap;html=1;" parent="v9M5jdULhOaIKDF-wlbc-95" vertex="1">
          <mxGeometry y="130" width="620" height="26" as="geometry" />
        </mxCell>
        <mxCell id="v9M5jdULhOaIKDF-wlbc-97" value="" style="line;strokeWidth=1;fillColor=none;align=left;verticalAlign=middle;spacingTop=-1;spacingLeft=3;spacingRight=3;rotatable=0;labelPosition=right;points=[];portConstraint=eastwest;strokeColor=inherit;" parent="v9M5jdULhOaIKDF-wlbc-95" vertex="1">
          <mxGeometry y="156" width="620" height="8" as="geometry" />
        </mxCell>
        <mxCell id="v9M5jdULhOaIKDF-wlbc-98" value="+ RegistrarUsuario(HTTP Session Req) Usuario" style="text;strokeColor=none;fillColor=none;align=left;verticalAlign=top;spacingLeft=4;spacingRight=4;overflow=hidden;rotatable=0;points=[[0,0.5],[1,0.5]];portConstraint=eastwest;whiteSpace=wrap;html=1;" parent="v9M5jdULhOaIKDF-wlbc-95" vertex="1">
          <mxGeometry y="164" width="620" height="26" as="geometry" />
        </mxCell>
        <mxCell id="v9M5jdULhOaIKDF-wlbc-100" value="+ transaccionregistrarUsuario(usuario)&amp;nbsp;" style="text;strokeColor=none;fillColor=none;align=left;verticalAlign=top;spacingLeft=4;spacingRight=4;overflow=hidden;rotatable=0;points=[[0,0.5],[1,0.5]];portConstraint=eastwest;whiteSpace=wrap;html=1;" parent="v9M5jdULhOaIKDF-wlbc-95" vertex="1">
          <mxGeometry y="190" width="620" height="26" as="geometry" />
        </mxCell>
        <mxCell id="v9M5jdULhOaIKDF-wlbc-109" value="+ registrarPreferencias(List&amp;lt;PreferenciaUsuario&amp;gt; preferencias)" style="text;strokeColor=none;fillColor=none;align=left;verticalAlign=top;spacingLeft=4;spacingRight=4;overflow=hidden;rotatable=0;points=[[0,0.5],[1,0.5]];portConstraint=eastwest;whiteSpace=wrap;html=1;" parent="v9M5jdULhOaIKDF-wlbc-95" vertex="1">
          <mxGeometry y="216" width="620" height="26" as="geometry" />
        </mxCell>
        <mxCell id="v9M5jdULhOaIKDF-wlbc-112" value="+ registrarCarteraDigital(usuario) Map&amp;lt;String errores&amp;gt;" style="text;strokeColor=none;fillColor=none;align=left;verticalAlign=top;spacingLeft=4;spacingRight=4;overflow=hidden;rotatable=0;points=[[0,0.5],[1,0.5]];portConstraint=eastwest;whiteSpace=wrap;html=1;" parent="v9M5jdULhOaIKDF-wlbc-95" vertex="1">
          <mxGeometry y="242" width="620" height="26" as="geometry" />
        </mxCell>
        <mxCell id="nuMz5E-OoA2DFbT41cDE-2" value="objetos que se obtiene por username&lt;div&gt;* usuario&lt;/div&gt;&lt;div&gt;* revista&lt;/div&gt;&lt;div&gt;*&lt;/div&gt;" style="text;html=1;align=center;verticalAlign=middle;resizable=0;points=[];autosize=1;strokeColor=none;fillColor=none;" parent="1" vertex="1">
          <mxGeometry x="1250" y="-932" width="220" height="70" as="geometry" />
        </mxCell>
        <mxCell id="ombsT0ijn7gkA4fLA30z-5" value="CreadorUsuario" style="swimlane;fontStyle=1;align=center;verticalAlign=top;childLayout=stackLayout;horizontal=1;startSize=26;horizontalStack=0;resizeParent=1;resizeParentMax=0;resizeLast=0;collapsible=1;marginBottom=0;whiteSpace=wrap;html=1;" parent="1" vertex="1">
          <mxGeometry x="40" y="-1042" width="410" height="164" as="geometry" />
        </mxCell>
        <mxCell id="ombsT0ijn7gkA4fLA30z-6" value="+ GeneradorPreferencias Gpref" style="text;strokeColor=none;fillColor=none;align=left;verticalAlign=top;spacingLeft=4;spacingRight=4;overflow=hidden;rotatable=0;points=[[0,0.5],[1,0.5]];portConstraint=eastwest;whiteSpace=wrap;html=1;" parent="ombsT0ijn7gkA4fLA30z-5" vertex="1">
          <mxGeometry y="26" width="410" height="26" as="geometry" />
        </mxCell>
        <mxCell id="ombsT0ijn7gkA4fLA30z-7" value="" style="line;strokeWidth=1;fillColor=none;align=left;verticalAlign=middle;spacingTop=-1;spacingLeft=3;spacingRight=3;rotatable=0;labelPosition=right;points=[];portConstraint=eastwest;strokeColor=inherit;" parent="ombsT0ijn7gkA4fLA30z-5" vertex="1">
          <mxGeometry y="52" width="410" height="8" as="geometry" />
        </mxCell>
        <mxCell id="ombsT0ijn7gkA4fLA30z-8" value="+ crearUsuario(HTTP Session) Usuario" style="text;strokeColor=none;fillColor=none;align=left;verticalAlign=top;spacingLeft=4;spacingRight=4;overflow=hidden;rotatable=0;points=[[0,0.5],[1,0.5]];portConstraint=eastwest;whiteSpace=wrap;html=1;" parent="ombsT0ijn7gkA4fLA30z-5" vertex="1">
          <mxGeometry y="60" width="410" height="26" as="geometry" />
        </mxCell>
        <mxCell id="ombsT0ijn7gkA4fLA30z-10" value="+ extraerYValidarDatos(HTTP Session);" style="text;strokeColor=none;fillColor=none;align=left;verticalAlign=top;spacingLeft=4;spacingRight=4;overflow=hidden;rotatable=0;points=[[0,0.5],[1,0.5]];portConstraint=eastwest;whiteSpace=wrap;html=1;" parent="ombsT0ijn7gkA4fLA30z-5" vertex="1">
          <mxGeometry y="86" width="410" height="26" as="geometry" />
        </mxCell>
        <mxCell id="ombsT0ijn7gkA4fLA30z-19" value="+ extraerYValidarPreferencias(String[] Preferencias)" style="text;strokeColor=none;fillColor=none;align=left;verticalAlign=top;spacingLeft=4;spacingRight=4;overflow=hidden;rotatable=0;points=[[0,0.5],[1,0.5]];portConstraint=eastwest;whiteSpace=wrap;html=1;" parent="ombsT0ijn7gkA4fLA30z-5" vertex="1">
          <mxGeometry y="112" width="410" height="26" as="geometry" />
        </mxCell>
        <mxCell id="ombsT0ijn7gkA4fLA30z-32" value="+ LIst&amp;lt;Prefern&amp;gt; crearPreferencia(String[] preferencias, TipoPreferncia tipo)" style="text;strokeColor=none;fillColor=none;align=left;verticalAlign=top;spacingLeft=4;spacingRight=4;overflow=hidden;rotatable=0;points=[[0,0.5],[1,0.5]];portConstraint=eastwest;whiteSpace=wrap;html=1;" parent="ombsT0ijn7gkA4fLA30z-5" vertex="1">
          <mxGeometry y="138" width="410" height="26" as="geometry" />
        </mxCell>
        <mxCell id="ombsT0ijn7gkA4fLA30z-12" value="Excepcion" style="swimlane;fontStyle=1;align=center;verticalAlign=top;childLayout=stackLayout;horizontal=1;startSize=26;horizontalStack=0;resizeParent=1;resizeParentMax=0;resizeLast=0;collapsible=1;marginBottom=0;whiteSpace=wrap;html=1;" parent="1" vertex="1">
          <mxGeometry x="115" y="-1210" width="230" height="86" as="geometry" />
        </mxCell>
        <mxCell id="ombsT0ijn7gkA4fLA30z-13" value="+ field: type" style="text;strokeColor=none;fillColor=none;align=left;verticalAlign=top;spacingLeft=4;spacingRight=4;overflow=hidden;rotatable=0;points=[[0,0.5],[1,0.5]];portConstraint=eastwest;whiteSpace=wrap;html=1;" parent="ombsT0ijn7gkA4fLA30z-12" vertex="1">
          <mxGeometry y="26" width="230" height="26" as="geometry" />
        </mxCell>
        <mxCell id="ombsT0ijn7gkA4fLA30z-14" value="" style="line;strokeWidth=1;fillColor=none;align=left;verticalAlign=middle;spacingTop=-1;spacingLeft=3;spacingRight=3;rotatable=0;labelPosition=right;points=[];portConstraint=eastwest;strokeColor=inherit;" parent="ombsT0ijn7gkA4fLA30z-12" vertex="1">
          <mxGeometry y="52" width="230" height="8" as="geometry" />
        </mxCell>
        <mxCell id="ombsT0ijn7gkA4fLA30z-15" value="+ DatosInvalidosFormRegistro" style="text;strokeColor=none;fillColor=none;align=left;verticalAlign=top;spacingLeft=4;spacingRight=4;overflow=hidden;rotatable=0;points=[[0,0.5],[1,0.5]];portConstraint=eastwest;whiteSpace=wrap;html=1;" parent="ombsT0ijn7gkA4fLA30z-12" vertex="1">
          <mxGeometry y="60" width="230" height="26" as="geometry" />
        </mxCell>
        <mxCell id="ombsT0ijn7gkA4fLA30z-16" value="Use" style="endArrow=open;endSize=12;dashed=1;html=1;rounded=0;entryX=0.569;entryY=1.013;entryDx=0;entryDy=0;entryPerimeter=0;exitX=0.5;exitY=0;exitDx=0;exitDy=0;" parent="1" source="ombsT0ijn7gkA4fLA30z-5" target="ombsT0ijn7gkA4fLA30z-15" edge="1">
          <mxGeometry width="160" relative="1" as="geometry">
            <mxPoint x="320" y="-1012" as="sourcePoint" />
            <mxPoint x="480" y="-1012" as="targetPoint" />
          </mxGeometry>
        </mxCell>
        <mxCell id="ombsT0ijn7gkA4fLA30z-17" value="1" style="endArrow=open;html=1;endSize=12;startArrow=diamondThin;startSize=14;startFill=1;edgeStyle=orthogonalEdgeStyle;align=left;verticalAlign=bottom;rounded=0;entryX=1;entryY=0;entryDx=0;entryDy=0;" parent="1" target="v9M5jdULhOaIKDF-wlbc-95" edge="1">
          <mxGeometry x="-1" y="3" relative="1" as="geometry">
            <mxPoint x="280" y="-871" as="sourcePoint" />
            <mxPoint x="510" y="-762" as="targetPoint" />
          </mxGeometry>
        </mxCell>
        <mxCell id="ombsT0ijn7gkA4fLA30z-18" value="1" style="endArrow=open;html=1;endSize=12;startArrow=diamondThin;startSize=14;startFill=1;edgeStyle=orthogonalEdgeStyle;align=left;verticalAlign=bottom;rounded=0;entryX=1.009;entryY=-0.002;entryDx=0;entryDy=0;entryPerimeter=0;exitX=0;exitY=0.5;exitDx=0;exitDy=0;" parent="1" source="FwK0ukZyEXFp0lMy9nqA-35" target="v9M5jdULhOaIKDF-wlbc-106" edge="1">
          <mxGeometry x="-1" y="3" relative="1" as="geometry">
            <mxPoint x="-250" y="-552" as="sourcePoint" />
            <mxPoint x="-90" y="-552" as="targetPoint" />
          </mxGeometry>
        </mxCell>
        <mxCell id="ombsT0ijn7gkA4fLA30z-21" value="1" style="endArrow=open;html=1;endSize=12;startArrow=diamondThin;startSize=14;startFill=1;edgeStyle=orthogonalEdgeStyle;align=left;verticalAlign=bottom;rounded=0;entryX=0;entryY=0;entryDx=0;entryDy=0;exitX=1.002;exitY=0.6;exitDx=0;exitDy=0;exitPerimeter=0;" parent="1" source="QPBchtsUJtEXCFkopXKg-8" target="ombsT0ijn7gkA4fLA30z-5" edge="1">
          <mxGeometry x="-0.9648" y="-30" relative="1" as="geometry">
            <mxPoint x="-130" y="-1342" as="sourcePoint" />
            <mxPoint x="-130" y="-1132" as="targetPoint" />
            <Array as="points">
              <mxPoint x="-160" y="-1322" />
              <mxPoint x="-160" y="-1342" />
              <mxPoint x="-50" y="-1342" />
              <mxPoint x="-50" y="-1042" />
            </Array>
            <mxPoint as="offset" />
          </mxGeometry>
        </mxCell>
        <mxCell id="ombsT0ijn7gkA4fLA30z-23" value="Use" style="endArrow=open;endSize=12;dashed=1;html=1;rounded=0;entryX=0;entryY=0;entryDx=0;entryDy=0;" parent="1" source="v9M5jdULhOaIKDF-wlbc-24" target="v9M5jdULhOaIKDF-wlbc-78" edge="1">
          <mxGeometry width="160" relative="1" as="geometry">
            <mxPoint x="1050" y="-652" as="sourcePoint" />
            <mxPoint x="1210" y="-652" as="targetPoint" />
          </mxGeometry>
        </mxCell>
        <mxCell id="ombsT0ijn7gkA4fLA30z-24" value="Use" style="endArrow=open;endSize=12;dashed=1;html=1;rounded=0;entryX=0.007;entryY=1.225;entryDx=0;entryDy=0;entryPerimeter=0;exitX=1;exitY=0;exitDx=0;exitDy=0;" parent="1" source="v9M5jdULhOaIKDF-wlbc-69" target="umDHWxReIGPnhOAI5taT-10" edge="1">
          <mxGeometry width="160" relative="1" as="geometry">
            <mxPoint x="1050" y="-652" as="sourcePoint" />
            <mxPoint x="1210" y="-652" as="targetPoint" />
          </mxGeometry>
        </mxCell>
        <mxCell id="ombsT0ijn7gkA4fLA30z-25" value="1" style="endArrow=open;html=1;endSize=12;startArrow=diamondThin;startSize=14;startFill=1;edgeStyle=orthogonalEdgeStyle;align=left;verticalAlign=bottom;rounded=0;entryX=1;entryY=0.5;entryDx=0;entryDy=0;exitX=0;exitY=0;exitDx=0;exitDy=0;" parent="1" source="v9M5jdULhOaIKDF-wlbc-69" target="v9M5jdULhOaIKDF-wlbc-100" edge="1">
          <mxGeometry x="-1" y="3" relative="1" as="geometry">
            <mxPoint x="880" y="-642" as="sourcePoint" />
            <mxPoint x="1040" y="-642" as="targetPoint" />
            <Array as="points">
              <mxPoint x="652" y="-662" />
              <mxPoint x="596" y="-662" />
              <mxPoint x="596" y="-609" />
            </Array>
          </mxGeometry>
        </mxCell>
        <mxCell id="ombsT0ijn7gkA4fLA30z-26" value="1" style="endArrow=open;html=1;endSize=12;startArrow=diamondThin;startSize=14;startFill=1;edgeStyle=orthogonalEdgeStyle;align=left;verticalAlign=bottom;rounded=0;exitX=0;exitY=0.25;exitDx=0;exitDy=0;entryX=1;entryY=0.5;entryDx=0;entryDy=0;" parent="1" source="v9M5jdULhOaIKDF-wlbc-24" target="v9M5jdULhOaIKDF-wlbc-112" edge="1">
          <mxGeometry x="-1" y="3" relative="1" as="geometry">
            <mxPoint x="880" y="-642" as="sourcePoint" />
            <mxPoint x="1040" y="-642" as="targetPoint" />
          </mxGeometry>
        </mxCell>
        <mxCell id="ombsT0ijn7gkA4fLA30z-27" value="1" style="endArrow=open;html=1;endSize=12;startArrow=diamondThin;startSize=14;startFill=1;edgeStyle=orthogonalEdgeStyle;align=left;verticalAlign=bottom;rounded=0;entryX=0.99;entryY=0.097;entryDx=0;entryDy=0;entryPerimeter=0;exitX=0;exitY=0.5;exitDx=0;exitDy=0;" parent="1" source="0hr7ckpAqA9oikr3UxDf-21" target="FwK0ukZyEXFp0lMy9nqA-35" edge="1">
          <mxGeometry x="-1" y="3" relative="1" as="geometry">
            <mxPoint x="880" y="-642" as="sourcePoint" />
            <mxPoint x="1040" y="-642" as="targetPoint" />
            <Array as="points">
              <mxPoint x="610" y="-795" />
              <mxPoint x="610" y="-772" />
              <mxPoint x="570" y="-772" />
              <mxPoint x="570" y="-731" />
            </Array>
          </mxGeometry>
        </mxCell>
        <mxCell id="ombsT0ijn7gkA4fLA30z-33" value="VistaRegistro.jsp" style="swimlane;fontStyle=1;align=center;verticalAlign=top;childLayout=stackLayout;horizontal=1;startSize=26;horizontalStack=0;resizeParent=1;resizeParentMax=0;resizeLast=0;collapsible=1;marginBottom=0;whiteSpace=wrap;html=1;" parent="1" vertex="1">
          <mxGeometry x="-740" y="-778" width="160" height="86" as="geometry" />
        </mxCell>
        <mxCell id="ombsT0ijn7gkA4fLA30z-34" value="+ field: type" style="text;strokeColor=none;fillColor=none;align=left;verticalAlign=top;spacingLeft=4;spacingRight=4;overflow=hidden;rotatable=0;points=[[0,0.5],[1,0.5]];portConstraint=eastwest;whiteSpace=wrap;html=1;" parent="ombsT0ijn7gkA4fLA30z-33" vertex="1">
          <mxGeometry y="26" width="160" height="26" as="geometry" />
        </mxCell>
        <mxCell id="ombsT0ijn7gkA4fLA30z-35" value="" style="line;strokeWidth=1;fillColor=none;align=left;verticalAlign=middle;spacingTop=-1;spacingLeft=3;spacingRight=3;rotatable=0;labelPosition=right;points=[];portConstraint=eastwest;strokeColor=inherit;" parent="ombsT0ijn7gkA4fLA30z-33" vertex="1">
          <mxGeometry y="52" width="160" height="8" as="geometry" />
        </mxCell>
        <mxCell id="ombsT0ijn7gkA4fLA30z-36" value="+ method(type): type" style="text;strokeColor=none;fillColor=none;align=left;verticalAlign=top;spacingLeft=4;spacingRight=4;overflow=hidden;rotatable=0;points=[[0,0.5],[1,0.5]];portConstraint=eastwest;whiteSpace=wrap;html=1;" parent="ombsT0ijn7gkA4fLA30z-33" vertex="1">
          <mxGeometry y="60" width="160" height="26" as="geometry" />
        </mxCell>
        <mxCell id="A3ow9CHIDYqlw_0hSR41-5" value="ServicioAutenticacion" style="swimlane;fontStyle=1;align=center;verticalAlign=top;childLayout=stackLayout;horizontal=1;startSize=26;horizontalStack=0;resizeParent=1;resizeParentMax=0;resizeLast=0;collapsible=1;marginBottom=0;whiteSpace=wrap;html=1;" parent="1" vertex="1">
          <mxGeometry x="590" y="-1362" width="160" height="86" as="geometry" />
        </mxCell>
        <mxCell id="A3ow9CHIDYqlw_0hSR41-6" value="+ DoPost" style="text;strokeColor=none;fillColor=none;align=left;verticalAlign=top;spacingLeft=4;spacingRight=4;overflow=hidden;rotatable=0;points=[[0,0.5],[1,0.5]];portConstraint=eastwest;whiteSpace=wrap;html=1;" parent="A3ow9CHIDYqlw_0hSR41-5" vertex="1">
          <mxGeometry y="26" width="160" height="26" as="geometry" />
        </mxCell>
        <mxCell id="A3ow9CHIDYqlw_0hSR41-7" value="" style="line;strokeWidth=1;fillColor=none;align=left;verticalAlign=middle;spacingTop=-1;spacingLeft=3;spacingRight=3;rotatable=0;labelPosition=right;points=[];portConstraint=eastwest;strokeColor=inherit;" parent="A3ow9CHIDYqlw_0hSR41-5" vertex="1">
          <mxGeometry y="52" width="160" height="8" as="geometry" />
        </mxCell>
        <mxCell id="A3ow9CHIDYqlw_0hSR41-8" value="+ method(type): type" style="text;strokeColor=none;fillColor=none;align=left;verticalAlign=top;spacingLeft=4;spacingRight=4;overflow=hidden;rotatable=0;points=[[0,0.5],[1,0.5]];portConstraint=eastwest;whiteSpace=wrap;html=1;" parent="A3ow9CHIDYqlw_0hSR41-5" vertex="1">
          <mxGeometry y="60" width="160" height="26" as="geometry" />
        </mxCell>
        <mxCell id="A3ow9CHIDYqlw_0hSR41-9" value="1" style="endArrow=open;html=1;endSize=12;startArrow=diamondThin;startSize=14;startFill=1;edgeStyle=orthogonalEdgeStyle;align=left;verticalAlign=bottom;rounded=0;exitX=0;exitY=0;exitDx=0;exitDy=0;entryX=0.118;entryY=1.027;entryDx=0;entryDy=0;entryPerimeter=0;" parent="1" source="0hr7ckpAqA9oikr3UxDf-21" target="A3ow9CHIDYqlw_0hSR41-8" edge="1">
          <mxGeometry x="-1" y="3" relative="1" as="geometry">
            <mxPoint x="530" y="-992" as="sourcePoint" />
            <mxPoint x="690" y="-992" as="targetPoint" />
          </mxGeometry>
        </mxCell>
        <mxCell id="A3ow9CHIDYqlw_0hSR41-11" value="AutenticadorLogin" style="swimlane;fontStyle=1;align=center;verticalAlign=top;childLayout=stackLayout;horizontal=1;startSize=26;horizontalStack=0;resizeParent=1;resizeParentMax=0;resizeLast=0;collapsible=1;marginBottom=0;whiteSpace=wrap;html=1;" parent="1" vertex="1">
          <mxGeometry x="65" y="-1336" width="360" height="60" as="geometry" />
        </mxCell>
        <mxCell id="A3ow9CHIDYqlw_0hSR41-13" value="" style="line;strokeWidth=1;fillColor=none;align=left;verticalAlign=middle;spacingTop=-1;spacingLeft=3;spacingRight=3;rotatable=0;labelPosition=right;points=[];portConstraint=eastwest;strokeColor=inherit;" parent="A3ow9CHIDYqlw_0hSR41-11" vertex="1">
          <mxGeometry y="26" width="360" height="8" as="geometry" />
        </mxCell>
        <mxCell id="A3ow9CHIDYqlw_0hSR41-14" value="+ verificarPasswordYRol(String CPlana, String CEncrypt, Rol);" style="text;strokeColor=none;fillColor=none;align=left;verticalAlign=top;spacingLeft=4;spacingRight=4;overflow=hidden;rotatable=0;points=[[0,0.5],[1,0.5]];portConstraint=eastwest;whiteSpace=wrap;html=1;" parent="A3ow9CHIDYqlw_0hSR41-11" vertex="1">
          <mxGeometry y="34" width="360" height="26" as="geometry" />
        </mxCell>
        <mxCell id="A3ow9CHIDYqlw_0hSR41-15" value="1" style="endArrow=open;html=1;endSize=12;startArrow=diamondThin;startSize=14;startFill=1;edgeStyle=orthogonalEdgeStyle;align=left;verticalAlign=bottom;rounded=0;entryX=-0.001;entryY=0.723;entryDx=0;entryDy=0;entryPerimeter=0;exitX=1;exitY=0.5;exitDx=0;exitDy=0;" parent="1" source="A3ow9CHIDYqlw_0hSR41-11" target="A3ow9CHIDYqlw_0hSR41-6" edge="1">
          <mxGeometry x="-1" y="3" relative="1" as="geometry">
            <mxPoint x="380" y="-1192" as="sourcePoint" />
            <mxPoint x="540" y="-1192" as="targetPoint" />
            <Array as="points">
              <mxPoint x="425" y="-1292" />
              <mxPoint x="520" y="-1292" />
              <mxPoint x="520" y="-1317" />
            </Array>
          </mxGeometry>
        </mxCell>
        <mxCell id="Alp-KGtvcBed02Xob16S-1" value="paginaPrincipal (JSP)&amp;nbsp;" style="swimlane;fontStyle=1;align=center;verticalAlign=top;childLayout=stackLayout;horizontal=1;startSize=26;horizontalStack=0;resizeParent=1;resizeParentMax=0;resizeLast=0;collapsible=1;marginBottom=0;whiteSpace=wrap;html=1;" vertex="1" parent="1">
          <mxGeometry x="590" y="-1590" width="160" height="86" as="geometry" />
        </mxCell>
        <mxCell id="Alp-KGtvcBed02Xob16S-2" value="+ field: type" style="text;strokeColor=none;fillColor=none;align=left;verticalAlign=top;spacingLeft=4;spacingRight=4;overflow=hidden;rotatable=0;points=[[0,0.5],[1,0.5]];portConstraint=eastwest;whiteSpace=wrap;html=1;" vertex="1" parent="Alp-KGtvcBed02Xob16S-1">
          <mxGeometry y="26" width="160" height="26" as="geometry" />
        </mxCell>
        <mxCell id="Alp-KGtvcBed02Xob16S-3" value="" style="line;strokeWidth=1;fillColor=none;align=left;verticalAlign=middle;spacingTop=-1;spacingLeft=3;spacingRight=3;rotatable=0;labelPosition=right;points=[];portConstraint=eastwest;strokeColor=inherit;" vertex="1" parent="Alp-KGtvcBed02Xob16S-1">
          <mxGeometry y="52" width="160" height="8" as="geometry" />
        </mxCell>
        <mxCell id="Alp-KGtvcBed02Xob16S-4" value="+ method(type): type" style="text;strokeColor=none;fillColor=none;align=left;verticalAlign=top;spacingLeft=4;spacingRight=4;overflow=hidden;rotatable=0;points=[[0,0.5],[1,0.5]];portConstraint=eastwest;whiteSpace=wrap;html=1;" vertex="1" parent="Alp-KGtvcBed02Xob16S-1">
          <mxGeometry y="60" width="160" height="26" as="geometry" />
        </mxCell>
        <mxCell id="Alp-KGtvcBed02Xob16S-10" value="" style="endArrow=open;endFill=1;endSize=12;html=1;rounded=0;" edge="1" parent="1">
          <mxGeometry width="160" relative="1" as="geometry">
            <mxPoint x="669.5" y="-1374" as="sourcePoint" />
            <mxPoint x="669.5" y="-1494" as="targetPoint" />
          </mxGeometry>
        </mxCell>
        <mxCell id="Alp-KGtvcBed02Xob16S-11" value="USUARIO" style="text;html=1;align=center;verticalAlign=middle;resizable=0;points=[];autosize=1;strokeColor=none;fillColor=none;" vertex="1" parent="1">
          <mxGeometry x="480" y="-1555" width="80" height="30" as="geometry" />
        </mxCell>
        <mxCell id="Alp-KGtvcBed02Xob16S-12" value="GeneradorOpciones" style="swimlane;fontStyle=1;align=center;verticalAlign=top;childLayout=stackLayout;horizontal=1;startSize=26;horizontalStack=0;resizeParent=1;resizeParentMax=0;resizeLast=0;collapsible=1;marginBottom=0;whiteSpace=wrap;html=1;" vertex="1" parent="1">
          <mxGeometry x="860" y="-1360" width="300" height="60" as="geometry" />
        </mxCell>
        <mxCell id="Alp-KGtvcBed02Xob16S-14" value="" style="line;strokeWidth=1;fillColor=none;align=left;verticalAlign=middle;spacingTop=-1;spacingLeft=3;spacingRight=3;rotatable=0;labelPosition=right;points=[];portConstraint=eastwest;strokeColor=inherit;" vertex="1" parent="Alp-KGtvcBed02Xob16S-12">
          <mxGeometry y="26" width="300" height="8" as="geometry" />
        </mxCell>
        <mxCell id="Alp-KGtvcBed02Xob16S-15" value="+ generarOpciones(Rol rol) &amp;lt;OpcionesUsuario&amp;gt;" style="text;strokeColor=none;fillColor=none;align=left;verticalAlign=top;spacingLeft=4;spacingRight=4;overflow=hidden;rotatable=0;points=[[0,0.5],[1,0.5]];portConstraint=eastwest;whiteSpace=wrap;html=1;" vertex="1" parent="Alp-KGtvcBed02Xob16S-12">
          <mxGeometry y="34" width="300" height="26" as="geometry" />
        </mxCell>
        <mxCell id="Alp-KGtvcBed02Xob16S-16" value="1" style="endArrow=open;html=1;endSize=12;startArrow=diamondThin;startSize=14;startFill=1;edgeStyle=orthogonalEdgeStyle;align=left;verticalAlign=bottom;rounded=0;entryX=0.977;entryY=0.788;entryDx=0;entryDy=0;entryPerimeter=0;exitX=-0.008;exitY=0.93;exitDx=0;exitDy=0;exitPerimeter=0;" edge="1" parent="1" target="A3ow9CHIDYqlw_0hSR41-6">
          <mxGeometry x="-1" y="3" relative="1" as="geometry">
            <mxPoint x="858.7199999999998" y="-1309.82" as="sourcePoint" />
            <mxPoint x="860" y="-1140" as="targetPoint" />
          </mxGeometry>
        </mxCell>
        <mxCell id="Alp-KGtvcBed02Xob16S-17" value="OpcionUsuario" style="swimlane;fontStyle=1;align=center;verticalAlign=top;childLayout=stackLayout;horizontal=1;startSize=26;horizontalStack=0;resizeParent=1;resizeParentMax=0;resizeLast=0;collapsible=1;marginBottom=0;whiteSpace=wrap;html=1;" vertex="1" parent="1">
          <mxGeometry x="940" y="-1124" width="160" height="138" as="geometry" />
        </mxCell>
        <mxCell id="Alp-KGtvcBed02Xob16S-18" value="+ Nombre String" style="text;strokeColor=none;fillColor=none;align=left;verticalAlign=top;spacingLeft=4;spacingRight=4;overflow=hidden;rotatable=0;points=[[0,0.5],[1,0.5]];portConstraint=eastwest;whiteSpace=wrap;html=1;" vertex="1" parent="Alp-KGtvcBed02Xob16S-17">
          <mxGeometry y="26" width="160" height="26" as="geometry" />
        </mxCell>
        <mxCell id="Alp-KGtvcBed02Xob16S-21" value="+ Accion String" style="text;strokeColor=none;fillColor=none;align=left;verticalAlign=top;spacingLeft=4;spacingRight=4;overflow=hidden;rotatable=0;points=[[0,0.5],[1,0.5]];portConstraint=eastwest;whiteSpace=wrap;html=1;" vertex="1" parent="Alp-KGtvcBed02Xob16S-17">
          <mxGeometry y="52" width="160" height="26" as="geometry" />
        </mxCell>
        <mxCell id="Alp-KGtvcBed02Xob16S-22" value="+ referencia URL" style="text;strokeColor=none;fillColor=none;align=left;verticalAlign=top;spacingLeft=4;spacingRight=4;overflow=hidden;rotatable=0;points=[[0,0.5],[1,0.5]];portConstraint=eastwest;whiteSpace=wrap;html=1;" vertex="1" parent="Alp-KGtvcBed02Xob16S-17">
          <mxGeometry y="78" width="160" height="26" as="geometry" />
        </mxCell>
        <mxCell id="Alp-KGtvcBed02Xob16S-23" value="+ Rol Rol" style="text;strokeColor=none;fillColor=none;align=left;verticalAlign=top;spacingLeft=4;spacingRight=4;overflow=hidden;rotatable=0;points=[[0,0.5],[1,0.5]];portConstraint=eastwest;whiteSpace=wrap;html=1;" vertex="1" parent="Alp-KGtvcBed02Xob16S-17">
          <mxGeometry y="104" width="160" height="26" as="geometry" />
        </mxCell>
        <mxCell id="Alp-KGtvcBed02Xob16S-19" value="" style="line;strokeWidth=1;fillColor=none;align=left;verticalAlign=middle;spacingTop=-1;spacingLeft=3;spacingRight=3;rotatable=0;labelPosition=right;points=[];portConstraint=eastwest;strokeColor=inherit;" vertex="1" parent="Alp-KGtvcBed02Xob16S-17">
          <mxGeometry y="130" width="160" height="8" as="geometry" />
        </mxCell>
        <mxCell id="Alp-KGtvcBed02Xob16S-24" value="1" style="endArrow=open;html=1;endSize=12;startArrow=diamondThin;startSize=14;startFill=1;edgeStyle=orthogonalEdgeStyle;align=left;verticalAlign=bottom;rounded=0;entryX=0.533;entryY=1.385;entryDx=0;entryDy=0;entryPerimeter=0;exitX=0.5;exitY=0;exitDx=0;exitDy=0;" edge="1" parent="1" source="Alp-KGtvcBed02Xob16S-17" target="Alp-KGtvcBed02Xob16S-15">
          <mxGeometry x="-1" y="3" relative="1" as="geometry">
            <mxPoint x="490" y="-1190" as="sourcePoint" />
            <mxPoint x="650" y="-1190" as="targetPoint" />
            <Array as="points">
              <mxPoint x="1020" y="-1205" />
              <mxPoint x="1030" y="-1205" />
              <mxPoint x="1030" y="-1290" />
            </Array>
          </mxGeometry>
        </mxCell>
        <mxCell id="Alp-KGtvcBed02Xob16S-25" value="ServeletPerfilUsuario" style="swimlane;fontStyle=1;align=center;verticalAlign=top;childLayout=stackLayout;horizontal=1;startSize=26;horizontalStack=0;resizeParent=1;resizeParentMax=0;resizeLast=0;collapsible=1;marginBottom=0;whiteSpace=wrap;html=1;" vertex="1" parent="1">
          <mxGeometry x="1120" y="-1780" width="160" height="86" as="geometry" />
        </mxCell>
        <mxCell id="Alp-KGtvcBed02Xob16S-26" value="+ field: type" style="text;strokeColor=none;fillColor=none;align=left;verticalAlign=top;spacingLeft=4;spacingRight=4;overflow=hidden;rotatable=0;points=[[0,0.5],[1,0.5]];portConstraint=eastwest;whiteSpace=wrap;html=1;" vertex="1" parent="Alp-KGtvcBed02Xob16S-25">
          <mxGeometry y="26" width="160" height="26" as="geometry" />
        </mxCell>
        <mxCell id="Alp-KGtvcBed02Xob16S-27" value="" style="line;strokeWidth=1;fillColor=none;align=left;verticalAlign=middle;spacingTop=-1;spacingLeft=3;spacingRight=3;rotatable=0;labelPosition=right;points=[];portConstraint=eastwest;strokeColor=inherit;" vertex="1" parent="Alp-KGtvcBed02Xob16S-25">
          <mxGeometry y="52" width="160" height="8" as="geometry" />
        </mxCell>
        <mxCell id="Alp-KGtvcBed02Xob16S-28" value="+ method(type): type" style="text;strokeColor=none;fillColor=none;align=left;verticalAlign=top;spacingLeft=4;spacingRight=4;overflow=hidden;rotatable=0;points=[[0,0.5],[1,0.5]];portConstraint=eastwest;whiteSpace=wrap;html=1;" vertex="1" parent="Alp-KGtvcBed02Xob16S-25">
          <mxGeometry y="60" width="160" height="26" as="geometry" />
        </mxCell>
        <mxCell id="Alp-KGtvcBed02Xob16S-34" value="RepositorioFotosUsuario" style="swimlane;fontStyle=1;align=center;verticalAlign=top;childLayout=stackLayout;horizontal=1;startSize=26;horizontalStack=0;resizeParent=1;resizeParentMax=0;resizeLast=0;collapsible=1;marginBottom=0;whiteSpace=wrap;html=1;" vertex="1" parent="1">
          <mxGeometry x="1600" y="-830" width="160" height="34" as="geometry" />
        </mxCell>
        <mxCell id="Alp-KGtvcBed02Xob16S-36" value="" style="line;strokeWidth=1;fillColor=none;align=left;verticalAlign=middle;spacingTop=-1;spacingLeft=3;spacingRight=3;rotatable=0;labelPosition=right;points=[];portConstraint=eastwest;strokeColor=inherit;" vertex="1" parent="Alp-KGtvcBed02Xob16S-34">
          <mxGeometry y="26" width="160" height="8" as="geometry" />
        </mxCell>
        <mxCell id="Alp-KGtvcBed02Xob16S-38" value="Use" style="endArrow=open;endSize=12;dashed=1;html=1;rounded=0;entryX=0.991;entryY=0.273;entryDx=0;entryDy=0;entryPerimeter=0;exitX=0;exitY=0.25;exitDx=0;exitDy=0;" edge="1" parent="1" source="Alp-KGtvcBed02Xob16S-34" target="umDHWxReIGPnhOAI5taT-9">
          <mxGeometry width="160" relative="1" as="geometry">
            <mxPoint x="1340" y="-910" as="sourcePoint" />
            <mxPoint x="1500" y="-910" as="targetPoint" />
          </mxGeometry>
        </mxCell>
        <mxCell id="Alp-KGtvcBed02Xob16S-39" value="1" style="endArrow=open;html=1;endSize=12;startArrow=diamondThin;startSize=14;startFill=1;edgeStyle=orthogonalEdgeStyle;align=left;verticalAlign=bottom;rounded=0;exitX=0;exitY=0;exitDx=0;exitDy=0;entryX=0.55;entryY=1.208;entryDx=0;entryDy=0;entryPerimeter=0;" edge="1" parent="1" source="Alp-KGtvcBed02Xob16S-34" target="A3ow9CHIDYqlw_0hSR41-8">
          <mxGeometry x="-1" y="3" relative="1" as="geometry">
            <mxPoint x="1210" y="-1090" as="sourcePoint" />
            <mxPoint x="1300" y="-1470" as="targetPoint" />
            <Array as="points">
              <mxPoint x="1600" y="-960" />
              <mxPoint x="780" y="-960" />
              <mxPoint x="780" y="-1180" />
              <mxPoint x="678" y="-1180" />
            </Array>
          </mxGeometry>
        </mxCell>
        <mxCell id="Alp-KGtvcBed02Xob16S-43" value="1" style="endArrow=open;html=1;endSize=12;startArrow=diamondThin;startSize=14;startFill=1;edgeStyle=orthogonalEdgeStyle;align=left;verticalAlign=bottom;rounded=0;exitX=1;exitY=1;exitDx=0;exitDy=0;entryX=0.991;entryY=1.072;entryDx=0;entryDy=0;entryPerimeter=0;" edge="1" parent="1" source="v9M5jdULhOaIKDF-wlbc-24" target="A3ow9CHIDYqlw_0hSR41-8">
          <mxGeometry x="-1" y="3" relative="1" as="geometry">
            <mxPoint x="830" y="-600" as="sourcePoint" />
            <mxPoint x="1340" y="-1490" as="targetPoint" />
            <Array as="points">
              <mxPoint x="902" y="-478" />
              <mxPoint x="912" y="-478" />
              <mxPoint x="912" y="-1220" />
              <mxPoint x="820" y="-1220" />
              <mxPoint x="820" y="-1274" />
            </Array>
          </mxGeometry>
        </mxCell>
        <mxCell id="Alp-KGtvcBed02Xob16S-48" value="PerfilUsuario (JSP)" style="swimlane;fontStyle=1;align=center;verticalAlign=top;childLayout=stackLayout;horizontal=1;startSize=26;horizontalStack=0;resizeParent=1;resizeParentMax=0;resizeLast=0;collapsible=1;marginBottom=0;whiteSpace=wrap;html=1;" vertex="1" parent="1">
          <mxGeometry x="870" y="-1780" width="160" height="86" as="geometry" />
        </mxCell>
        <mxCell id="Alp-KGtvcBed02Xob16S-49" value="+ field: type" style="text;strokeColor=none;fillColor=none;align=left;verticalAlign=top;spacingLeft=4;spacingRight=4;overflow=hidden;rotatable=0;points=[[0,0.5],[1,0.5]];portConstraint=eastwest;whiteSpace=wrap;html=1;" vertex="1" parent="Alp-KGtvcBed02Xob16S-48">
          <mxGeometry y="26" width="160" height="26" as="geometry" />
        </mxCell>
        <mxCell id="Alp-KGtvcBed02Xob16S-50" value="" style="line;strokeWidth=1;fillColor=none;align=left;verticalAlign=middle;spacingTop=-1;spacingLeft=3;spacingRight=3;rotatable=0;labelPosition=right;points=[];portConstraint=eastwest;strokeColor=inherit;" vertex="1" parent="Alp-KGtvcBed02Xob16S-48">
          <mxGeometry y="52" width="160" height="8" as="geometry" />
        </mxCell>
        <mxCell id="Alp-KGtvcBed02Xob16S-51" value="+ method(type): type" style="text;strokeColor=none;fillColor=none;align=left;verticalAlign=top;spacingLeft=4;spacingRight=4;overflow=hidden;rotatable=0;points=[[0,0.5],[1,0.5]];portConstraint=eastwest;whiteSpace=wrap;html=1;" vertex="1" parent="Alp-KGtvcBed02Xob16S-48">
          <mxGeometry y="60" width="160" height="26" as="geometry" />
        </mxCell>
        <mxCell id="Alp-KGtvcBed02Xob16S-60" value="" style="endArrow=open;endFill=1;endSize=12;html=1;rounded=0;" edge="1" parent="1">
          <mxGeometry width="160" relative="1" as="geometry">
            <mxPoint x="760" y="-1600" as="sourcePoint" />
            <mxPoint x="870" y="-1680" as="targetPoint" />
          </mxGeometry>
        </mxCell>
        <mxCell id="Alp-KGtvcBed02Xob16S-69" value="" style="html=1;points=[[0,0,0,0,5],[0,1,0,0,-5],[1,0,0,0,5],[1,1,0,0,-5]];perimeter=orthogonalPerimeter;outlineConnect=0;targetShapes=umlLifeline;portConstraint=eastwest;newEdgeStyle={&quot;curved&quot;:0,&quot;rounded&quot;:0};" vertex="1" parent="1">
          <mxGeometry x="1030" y="-1780" width="10" height="80" as="geometry" />
        </mxCell>
        <mxCell id="Alp-KGtvcBed02Xob16S-70" value="callback" style="html=1;verticalAlign=bottom;endArrow=block;curved=0;rounded=0;entryX=1;entryY=0;entryDx=0;entryDy=5;" edge="1" target="Alp-KGtvcBed02Xob16S-69" parent="1">
          <mxGeometry relative="1" as="geometry">
            <mxPoint x="1110" y="-1775" as="sourcePoint" />
          </mxGeometry>
        </mxCell>
        <mxCell id="Alp-KGtvcBed02Xob16S-71" value="return" style="html=1;verticalAlign=bottom;endArrow=open;dashed=1;endSize=8;curved=0;rounded=0;exitX=1;exitY=1;exitDx=0;exitDy=-5;" edge="1" source="Alp-KGtvcBed02Xob16S-69" parent="1">
          <mxGeometry relative="1" as="geometry">
            <mxPoint x="1110" y="-1705" as="targetPoint" />
          </mxGeometry>
        </mxCell>
        <mxCell id="Alp-KGtvcBed02Xob16S-72" value="ServicioActualizarPerfil" style="swimlane;fontStyle=1;align=center;verticalAlign=top;childLayout=stackLayout;horizontal=1;startSize=26;horizontalStack=0;resizeParent=1;resizeParentMax=0;resizeLast=0;collapsible=1;marginBottom=0;whiteSpace=wrap;html=1;" vertex="1" parent="1">
          <mxGeometry x="1290" y="-1598" width="160" height="86" as="geometry" />
        </mxCell>
        <mxCell id="Alp-KGtvcBed02Xob16S-73" value="+ field: type" style="text;strokeColor=none;fillColor=none;align=left;verticalAlign=top;spacingLeft=4;spacingRight=4;overflow=hidden;rotatable=0;points=[[0,0.5],[1,0.5]];portConstraint=eastwest;whiteSpace=wrap;html=1;" vertex="1" parent="Alp-KGtvcBed02Xob16S-72">
          <mxGeometry y="26" width="160" height="26" as="geometry" />
        </mxCell>
        <mxCell id="Alp-KGtvcBed02Xob16S-74" value="" style="line;strokeWidth=1;fillColor=none;align=left;verticalAlign=middle;spacingTop=-1;spacingLeft=3;spacingRight=3;rotatable=0;labelPosition=right;points=[];portConstraint=eastwest;strokeColor=inherit;" vertex="1" parent="Alp-KGtvcBed02Xob16S-72">
          <mxGeometry y="52" width="160" height="8" as="geometry" />
        </mxCell>
        <mxCell id="Alp-KGtvcBed02Xob16S-75" value="+ method(type): type" style="text;strokeColor=none;fillColor=none;align=left;verticalAlign=top;spacingLeft=4;spacingRight=4;overflow=hidden;rotatable=0;points=[[0,0.5],[1,0.5]];portConstraint=eastwest;whiteSpace=wrap;html=1;" vertex="1" parent="Alp-KGtvcBed02Xob16S-72">
          <mxGeometry y="60" width="160" height="26" as="geometry" />
        </mxCell>
        <mxCell id="Alp-KGtvcBed02Xob16S-76" style="edgeStyle=orthogonalEdgeStyle;rounded=0;orthogonalLoop=1;jettySize=auto;html=1;entryX=0.25;entryY=0;entryDx=0;entryDy=0;" edge="1" parent="1" source="Alp-KGtvcBed02Xob16S-75" target="Alp-KGtvcBed02Xob16S-34">
          <mxGeometry relative="1" as="geometry">
            <mxPoint x="1690" y="-852.9411764705883" as="targetPoint" />
          </mxGeometry>
        </mxCell>
        <mxCell id="Alp-KGtvcBed02Xob16S-77" style="edgeStyle=orthogonalEdgeStyle;rounded=0;orthogonalLoop=1;jettySize=auto;html=1;entryX=0.738;entryY=0.971;entryDx=0;entryDy=0;entryPerimeter=0;" edge="1" parent="1" source="Alp-KGtvcBed02Xob16S-75" target="v9M5jdULhOaIKDF-wlbc-25">
          <mxGeometry relative="1" as="geometry">
            <Array as="points">
              <mxPoint x="1800" y="-1525" />
              <mxPoint x="1800" y="-430" />
              <mxPoint x="837" y="-430" />
            </Array>
          </mxGeometry>
        </mxCell>
        <mxCell id="Alp-KGtvcBed02Xob16S-78" style="edgeStyle=orthogonalEdgeStyle;rounded=0;orthogonalLoop=1;jettySize=auto;html=1;exitX=0;exitY=0.5;exitDx=0;exitDy=0;entryX=0.75;entryY=0;entryDx=0;entryDy=0;" edge="1" parent="1" source="Alp-KGtvcBed02Xob16S-73" target="0hr7ckpAqA9oikr3UxDf-21">
          <mxGeometry relative="1" as="geometry">
            <Array as="points">
              <mxPoint x="1250" y="-1559" />
              <mxPoint x="1250" y="-920" />
              <mxPoint x="836" y="-920" />
            </Array>
          </mxGeometry>
        </mxCell>
        <mxCell id="Alp-KGtvcBed02Xob16S-80" value="1" style="endArrow=open;html=1;endSize=12;startArrow=diamondThin;startSize=14;startFill=1;edgeStyle=orthogonalEdgeStyle;align=left;verticalAlign=bottom;rounded=0;entryX=0.502;entryY=1.176;entryDx=0;entryDy=0;entryPerimeter=0;exitX=0;exitY=0;exitDx=0;exitDy=0;" edge="1" parent="1" source="Alp-KGtvcBed02Xob16S-72" target="Alp-KGtvcBed02Xob16S-28">
          <mxGeometry x="-1" y="3" relative="1" as="geometry">
            <mxPoint x="1190" y="-1580" as="sourcePoint" />
            <mxPoint x="1350" y="-1580" as="targetPoint" />
            <Array as="points">
              <mxPoint x="1190" y="-1598" />
              <mxPoint x="1190" y="-1630" />
              <mxPoint x="1200" y="-1630" />
            </Array>
          </mxGeometry>
        </mxCell>
      </root>
    </mxGraphModel>
  </diagram>
</mxfile>
